<?xml version="1.0" standalone="no"?>
<!DOCTYPE svg PUBLIC "-//W3C//DTD SVG 20010904//EN"
 "http://www.w3.org/TR/2001/REC-SVG-20010904/DTD/svg10.dtd">
<svg version="1.0" xmlns="http://www.w3.org/2000/svg"
 width="1280.000000pt" height="1280.000000pt" viewBox="0 0 1280.000000 1280.000000"
 preserveAspectRatio="xMidYMid meet">
<metadata>
Created by potrace 1.15, written by Peter Selinger 2001-2017
</metadata>
<g transform="translate(0.000000,1280.000000) scale(0.100000,-0.100000)"
fill="#ffeb3b" stroke="none">
<path d="M6357 11927 c-20 -122 -68 -406 -106 -632 -39 -225 -115 -680 -171
-1010 -56 -330 -105 -616 -109 -635 l-7 -35 -50 90 c-28 50 -180 323 -339 608
-158 285 -289 516 -291 514 -4 -3 11 -1064 19 -1434 2 -84 1 -153 -2 -152 -3
0 -121 141 -263 312 -596 725 -1472 1784 -1494 1807 -24 25 -24 25 5 -55 72
-197 862 -2323 872 -2344 5 -13 8 -25 6 -28 -3 -2 -948 560 -1201 714 -11 7
-9 4 417 -706 202 -337 366 -615 364 -618 -3 -2 -121 40 -263 93 -143 52 -434
161 -649 241 -214 79 -527 196 -695 258 -1006 375 -980 366 -980 360 0 -2 453
-378 1007 -837 554 -458 1017 -841 1028 -851 19 -18 2 -18 -515 -12 -294 3
-618 8 -720 11 -153 4 -182 3 -169 -8 9 -7 300 -170 647 -363 439 -244 625
-352 613 -357 -9 -4 -124 -25 -256 -47 -247 -41 -1017 -171 -1695 -286 -212
-36 -458 -77 -547 -92 -90 -15 -159 -30 -155 -34 4 -3 52 -13 107 -22 90 -14
389 -64 1710 -288 226 -38 509 -85 630 -106 121 -20 223 -39 226 -42 4 -3
-285 -168 -641 -366 l-648 -360 112 -3 c61 -2 381 2 710 7 330 6 601 10 602 8
2 -2 -202 -171 -1553 -1287 -275 -228 -500 -416 -499 -417 1 -2 168 60 1341
497 895 333 1260 468 1263 466 1 -2 -177 -302 -396 -667 -219 -365 -398 -665
-396 -667 1 -2 271 157 598 354 328 196 598 355 599 353 2 -2 -95 -267 -215
-589 -288 -774 -624 -1675 -660 -1775 -25 -68 -26 -77 -10 -60 11 11 410 493
887 1070 477 578 870 1051 875 1053 4 1 6 -68 4 -155 -8 -316 -24 -1436 -21
-1439 2 -2 156 271 342 606 186 335 340 609 341 607 2 -1 41 -230 88 -507 47
-278 117 -692 156 -920 38 -228 96 -569 127 -757 32 -188 60 -339 64 -335 3 4
13 54 22 112 9 58 49 292 87 520 39 228 109 642 156 920 156 927 195 1155 197
1164 2 5 181 -310 398 -700 l394 -709 3 50 c2 28 -1 347 -7 709 -6 363 -10
660 -9 661 2 1 353 -421 781 -939 428 -518 795 -962 817 -986 l39 -45 -54 145
c-29 80 -243 655 -475 1279 -232 623 -420 1134 -418 1135 2 2 313 -183 692
-411 379 -227 690 -412 692 -410 2 1 -167 287 -376 635 -208 348 -377 632
-376 632 4 0 2354 -873 2396 -890 38 -15 29 -8 -1042 878 -543 449 -986 818
-984 820 2 2 327 -2 723 -8 395 -7 747 -10 781 -8 l64 3 -665 370 c-366 203
-664 372 -662 374 5 5 38 11 690 121 1234 209 1549 262 1700 286 88 14 167 28
175 31 8 3 -84 23 -205 44 -233 39 -1429 242 -2003 338 -188 32 -344 60 -347
62 -2 3 295 171 660 374 366 203 663 370 662 372 -3 3 -1021 -13 -1375 -21
-117 -3 -210 -2 -208 3 3 5 467 390 1031 856 564 467 1024 850 1022 851 -1 2
-99 -33 -217 -77 -118 -44 -298 -111 -400 -149 -102 -38 -392 -146 -645 -240
-798 -297 -1109 -412 -1127 -417 -11 -3 126 236 357 622 206 344 375 628 375
630 0 2 -311 -183 -691 -411 -381 -228 -694 -413 -696 -410 -4 4 383 1052 853
2311 51 137 92 250 91 251 -1 1 -368 -441 -816 -982 -448 -542 -815 -983 -817
-981 -2 2 1 294 7 648 6 354 9 670 7 702 l-3 57 -389 -700 c-214 -386 -393
-703 -398 -706 -4 -3 -8 0 -8 7 0 10 -73 447 -271 1614 -38 226 -94 563 -126
750 -31 187 -59 343 -62 347 -4 4 -23 -93 -44 -215z"/>
</g>
</svg>
